<svg xmlns="http://www.w3.org/2000/svg" width="100" height="100" viewBox="0 0 100 100"><path fill="#ff6b70" transform="translate(11.9 22.4) scale(1.9)" d="M30.295 16.607h4.752a3.63 3.63 0 0 0 2.578-1.07 3.64 3.64 0 0 0 1.07-2.572 3.64 3.64 0 0 0-3.642-3.643H20.087c-.448 0-.876-.265-1.008-.692-.22-.698.3-1.345.967-1.345h7.274a3.63 3.63 0 0 0 2.578-1.07 3.61 3.61 0 0 0 1.07-2.573A3.64 3.64 0 0 0 27.324 0H8.77A3.64 3.64 0 0 0 6.19 1.07a3.62 3.62 0 0 0-1.028 3.107c.254 1.809 1.884 3.108 3.713 3.108h3.382c.448 0 .876.265 1.009.693.219.697-.3 1.344-.968 1.344H3.645a3.63 3.63 0 0 0-2.578 1.07A3.63 3.63 0 0 0 .038 13.5c.26 1.808 1.89 3.107 3.719 3.107h19.356c.56 0 1.064.423 1.085.983s-.443 1.06-1.019 1.06h-6.856a3.61 3.61 0 0 0-2.572 1.07 3.62 3.62 0 0 0-1.03 3.107c.255 1.808 1.885 3.113 3.714 3.113h8.39c1.008 0 1.97.428 2.643 1.181l2.323 2.604c.504.56 1.431.208 1.431-.545v-1.758c0-.815.662-1.477 1.477-1.477h.398a3.65 3.65 0 0 0 2.577-1.065 3.62 3.62 0 0 0 1.06-2.822c-.128-1.936-1.814-3.398-3.755-3.398h-2.75c-.576 0-1.04-.474-1.019-1.06.02-.585.525-.983 1.085-.983z"/></svg>